<svg xmlns="http://www.w3.org/2000/svg" viewBox="0 0 64 64" width="64" height="64">
  <defs>
    <linearGradient id="grad" x1="0%" y1="0%" x2="100%" y2="100%">
      <stop offset="0%" style="stop-color:#3b82f6;stop-opacity:1" />
      <stop offset="100%" style="stop-color:#1e40af;stop-opacity:1" />
    </linearGradient>
  </defs>
  <!-- Background -->
  <rect width="64" height="64" rx="12" fill="url(#grad)"/>
  <!-- Document icon -->
  <path d="M18 10H44C45.1 10 46 10.9 46 12V52C46 53.1 45.1 54 44 54H20C18.9 54 18 53.1 18 52V12C18 10.9 18.9 10 20 10Z" fill="white" opacity="0.95"/>
  <!-- Lines on document -->
  <line x1="24" y1="22" x2="40" y2="22" stroke="#3b82f6" stroke-width="1.5" stroke-linecap="round"/>
  <line x1="24" y1="30" x2="40" y2="30" stroke="#3b82f6" stroke-width="1.5" stroke-linecap="round"/>
  <line x1="24" y1="38" x2="40" y2="38" stroke="#3b82f6" stroke-width="1.5" stroke-linecap="round"/>
  <line x1="24" y1="46" x2="32" y2="46" stroke="#3b82f6" stroke-width="1.5" stroke-linecap="round"/>
  <!-- Sparkle accent -->
  <circle cx="42" cy="18" r="3" fill="#fbbf24"/>
  <line x1="42" y1="14" x2="42" y2="12" stroke="#fbbf24" stroke-width="1.5" stroke-linecap="round"/>
  <line x1="46" y1="18" x2="48" y2="18" stroke="#fbbf24" stroke-width="1.5" stroke-linecap="round"/>
</svg>
